#!OML:ASF I:\golf\golf\golf 2\Subject 1\2002-09-07\Subject1.ASF
:FULLY-SPECIFIED
:DEGREES
299
root -7.31667 17.7589 5.16426 2.53748 32.06 -7.87014
lowerback 4.61505 -9.69985 -18.5112
upperback -1.48178 -13.9169 -5.00181
thorax -1.15518 -6.5906 5.00672
lowerneck -3.77859 22.8216 2.369
upperneck 10.3707 32.6319 -14.0691
head 6.53744 15.0881 -1.84258
rclavicle 1.20464e-013 3.18055e-015
rhumerus 31.1528 -28.9734 -53.8516
rradius 106.196
rwrist -1.47169
rhand -66.3086 21.9828
rfingers 7.12502
rthumb -38.1344 -3.77973
lclavicle 1.20464e-013 3.18055e-015
lhumerus 115.555 -39.8981 44.391
lradius 38.5673
lwrist 2.39573
lhand -20.3444 1.79143
lfingers 7.12502
lthumb -173.993 211.686
rfemur -28.636 15.8281 26.037
rtibia 32.9566
rfoot 1.23641 32.5989
rtoes 33.7741
lfemur -1.56107 20.4475 9.82578
ltibia 41.0884
lfoot 19.8718 5.67837
ltoes -27.9312
300
root -7.32061 17.7583 5.13638 2.62272 32.2552 -7.8752
lowerback 4.6898 -9.67262 -18.6002
upperback -1.34967 -13.8816 -4.93846
thorax -1.02382 -6.58974 5.11209
lowerneck -4.28819 22.8632 2.04891
upperneck 10.476 32.693 -13.8146
head 6.56304 15.0887 -1.68515
rclavicle 4.37326e-014 1.59028e-014
rhumerus 31.3067 -28.7581 -54.0975
rradius 105.868
rwrist -2.12139
rhand -66.8738 23.1028
rfingers 7.12502
rthumb -38.6679 -2.51159
lclavicle 4.37326e-014 1.59028e-014
lhumerus 115.238 -39.8876 44.5569
lradius 38.453
lwrist 2.32504
lhand -19.888 2.03832
lfingers 7.12502
lthumb -173.552 211.92
rfemur -28.7898 15.6675 25.923
rtibia 32.7963
rfoot 2.17188 32.2853
rtoes 34.9764
lfemur -1.78331 20.6528 9.82454
ltibia 41.1407
lfoot 19.625 5.16841
ltoes -28.7345
301
root -7.32152 17.7586 5.10279 2.64298 32.4508 -8.01441
lowerback 4.79767 -9.65198 -18.5453
upperback -1.24005 -13.8611 -4.82738
thorax -0.951425 -6.59408 5.20832
lowerneck -4.70618 22.8863 1.69267
upperneck 10.6058 32.7193 -13.4756
head 6.55845 15.0826 -1.52083
rclavicle -1.01778e-013 -9.54166e-015
rhumerus 31.5608 -28.5506 -54.4564
rradius 105.507
rwrist -2.85986
rhand -67.331 21.9366
rfingers 7.12502
rthumb -39.0989 -3.55498
lclavicle -1.01778e-013 -9.54166e-015
lhumerus 114.924 -39.8086 44.6847
lradius 38.247
lwrist 2.41437
lhand -19.5057 2.32755
lfingers 7.12502
lthumb -173.183 212.198
rfemur -28.9212 15.3832 25.9612
rtibia 32.6191
rfoot 2.32216 32.3318
rtoes 33.7218
lfemur -2.00965 20.906 9.93707
ltibia 41.1767
lfoot 19.3534 4.39466
ltoes -30.2195
302
root -7.32363 17.7591 5.06203 2.63552 32.7337 -8.25035
lowerback 4.98198 -9.63742 -18.4175
upperback -1.19474 -13.8734 -4.70339
thorax -0.997778 -6.60273 5.30553
lowerneck -4.6537 22.8628 1.64453
upperneck 10.5923 32.6725 -13.4234
head 6.52554 15.0689 -1.51905
rclavicle -6.16232e-014 -6.36111e-014
rhumerus 31.7443 -28.3316 -54.8689
rradius 105.159
rwrist -3.99229
rhand -66.7139 23.3795
rfingers 7.12502
rthumb -38.517 -2.27714
lclavicle -6.16232e-014 -6.36111e-014
lhumerus 114.554 -39.8762 44.8748
lradius 37.991
lwrist 2.36724
lhand -19.1658 2.58374
lfingers 7.12502
lthumb -172.855 212.443
rfemur -29.1418 15.087 26.0443
rtibia 32.5065
rfoot 2.30206 32.3458
rtoes 32.235
lfemur -2.29881 21.1141 10.0909
ltibia 41.1722
lfoot 19.0144 4.11842
ltoes -30.4873
303
root -7.32985 17.7628 5.0195 2.83525 33.128 -8.18277
lowerback 5.16579 -9.69236 -18.5915
upperback -1.10105 -13.981 -4.57673
thorax -0.903343 -6.66605 5.53045
lowerneck -4.88381 22.9208 1.34622
upperneck 10.6103 32.7664 -13.3668
head 6.5199 15.0946 -1.44581
rclavicle 1.18078e-013 6.36111e-015
rhumerus 32.1629 -27.934 -55.3489
rradius 104.789
rwrist -5.35978
rhand -66.81 28.038
rfingers 7.12502
rthumb -38.6076 2.40671
lclavicle 1.18078e-013 6.36111e-015
lhumerus 114.422 -39.5884 44.8919
lradius 37.667
lwrist 2.40333
lhand -18.6571 2.99861
lfingers 7.12502
lthumb -172.364 212.841
rfemur -29.4453 14.7533 25.8268
rtibia 32.4281
rfoot 1.91798 32.1461
rtoes 31.8033
lfemur -2.70638 21.1696 9.86714
ltibia 41.1487
lfoot 18.5253 4.14283
ltoes -30.2615
304
root -7.33354 17.7666 4.97753 2.97824 33.456 -8.13221
lowerback 5.29991 -9.67658 -18.7387
upperback -0.982918 -13.9801 -4.47601
thorax -0.790208 -6.67992 5.7118
lowerneck -5.07742 22.9287 1.10926
upperneck 10.7174 32.7935 -13.2419
head 6.52921 15.0911 -1.36825
rclavicle -8.11041e-014 -4.13472e-014
rhumerus 32.4408 -27.5853 -55.7563
rradius 104.483
rwrist -6.53367
rhand -67.1267 31.5061
rfingers 7.12502
rthumb -38.9063 5.95929
lclavicle -8.11041e-014 -4.13472e-014
lhumerus 114.492 -39.3112 44.7883
lradius 37.2474
lwrist 2.65963
lhand -18.1575 3.43032
lfingers 7.12502
lthumb -171.882 213.254
rfemur -29.6777 14.4888 25.6466
rtibia 32.3385
rfoot 1.44709 31.8873
rtoes 31.3367
lfemur -2.98288 21.2712 9.69803
ltibia 41.1255
lfoot 17.8451 4.17191
ltoes -29.634
305
root -7.33491 17.7665 4.93408 2.88227 33.7621 -8.44224
lowerback 5.40406 -9.55125 -18.5171
upperback -0.876733 -13.8145 -4.43181
thorax -0.80592 -6.60788 5.67452
lowerneck -4.79548 22.7897 1.47074
upperneck 10.8044 32.6051 -13.3487
head 6.57255 15.016 -1.46862
rclavicle -2.32578e-014 6.04305e-014
rhumerus 32.2815 -27.5221 -56.1037
rradius 104.217
rwrist -7.2511
rhand -67.1331 30.2353
rfingers 7.12502
rthumb -38.9124 4.69026
lclavicle -2.32578e-014 6.04305e-014
lhumerus 114.477 -39.5609 44.7293
lradius 36.8668
lwrist 2.77739
lhand -17.8253 3.67487
lfingers 7.12502
lthumb -171.561 213.486
rfemur -29.8424 14.2269 25.8175
rtibia 32.2502
rfoot 1.01436 31.7036
rtoes 29.3361
lfemur -3.18039 21.4987 9.92028
ltibia 41.1023
lfoot 17.2004 3.90571
ltoes -29.3065
306
root -7.33726 17.763 4.88992 2.88708 34.1338 -8.63805
lowerback 5.49539 -9.47604 -18.3742
upperback -0.759184 -13.7127 -4.38798
thorax -0.77041 -6.57021 5.66342
lowerneck -4.74605 22.7004 1.6712
upperneck 10.8638 32.5027 -13.4811
head 6.63014 14.9631 -1.52752
rclavicle 7.23576e-014 5.40694e-014
rhumerus 32.2225 -27.3891 -56.5576
rradius 103.891
rwrist -7.8326
rhand -66.9368 27.5756
rfingers 7.12502
rthumb -38.7272 1.97795
lclavicle 7.23576e-014 5.40694e-014
lhumerus 114.246 -39.835 44.8216
lradius 36.6018
lwrist 2.71383
lhand -17.4121 3.96865
lfingers 7.12502
lthumb -171.162 213.764
rfemur -30.0251 13.9631 25.8625
rtibia 32.1528
rfoot 0.362265 31.4648
rtoes 27.4773
lfemur -3.48164 21.7004 9.97796
ltibia 41.0784
lfoot 16.5955 3.36052
ltoes -29.8746
307
root -7.33914 17.7607 4.84532 3.01619 34.4848 -8.599
lowerback 5.67112 -9.44949 -18.4475
upperback -0.684393 -13.7109 -4.31977
thorax -0.753511 -6.57423 5.79233
lowerneck -5.08053 22.733 1.45946
upperneck 10.9795 32.5802 -13.4054
head 6.68155 14.9707 -1.43793
rclavicle 7.03698e-014 -4.77083e-014
rhumerus 32.4039 -27.0223 -57.1517
rradius 103.547
rwrist -8.66538
rhand -66.2141 26.8812
rfingers 7.12502
rthumb -38.0452 1.09431
lclavicle 7.03698e-014 -4.77083e-014
lhumerus 113.793 -39.9339 45.0469
lradius 36.3616
lwrist 2.52794
lhand -17.002 4.23286
lfingers 7.12502
lthumb -170.767 214.011
rfemur -30.2142 13.7568 25.6784
rtibia 32.0472
rfoot -0.369008 31.1371
rtoes 27.2328
lfemur -3.76577 21.799 9.75817
ltibia 41.0529
lfoot 15.7918 3.02431
ltoes -30.2245
308
root -7.33932 17.7625 4.79616 3.06609 34.8431 -8.63284
lowerback 5.90521 -9.39605 -18.4534
upperback -0.633134 -13.688 -4.24869
thorax -0.813618 -6.56158 5.90941
lowerneck -5.20327 22.7375 1.37299
upperneck 11.11 32.6089 -13.334
head 6.72006 14.9701 -1.38888
rclavicle -1.08934e-013 2.54444e-014
rhumerus 32.5198 -26.6983 -57.745
rradius 103.208
rwrist -9.59011
rhand -65.7738 26.8437
rfingers 7.12502
rthumb -37.6293 0.944534
lclavicle -1.08934e-013 2.54444e-014
lhumerus 113.346 -40.0706 45.2345
lradius 36.095
lwrist 2.42269
lhand -16.5384 4.62685
lfingers 7.12502
lthumb -170.319 214.384
rfemur -30.4093 13.4686 25.5604
rtibia 31.9625
rfoot -0.816752 30.8282
rtoes 26.9091
lfemur -4.01647 21.8504 9.5561
ltibia 41.0167
lfoot 14.7989 2.87255
ltoes -30.4204
309
root -7.34026 17.7684 4.74374 3.04699 35.2788 -8.74849
lowerback 6.15202 -9.30861 -18.4154
upperback -0.535602 -13.6141 -4.1761
thorax -0.850877 -6.52905 6.00747
lowerneck -5.07842 22.6816 1.46659
upperneck 11.1766 32.5378 -13.3618
head 6.73578 14.941 -1.42173
rclavicle -8.45829e-014 -5.40694e-014
rhumerus 32.4916 -26.4739 -58.2718
rradius 102.857
rwrist -10.3899
rhand -65.5739 27.0703
rfingers 7.12502
rthumb -37.4403 1.12095
lclavicle -8.45829e-014 -5.40694e-014
lhumerus 112.938 -40.3764 45.5334
lradius 35.7737
lwrist 2.34036
lhand -15.7793 5.16575
lfingers 7.12502
lthumb -169.587 214.888
rfemur -30.6059 13.1795 25.4872
rtibia 31.905
rfoot -0.99639 30.4638
rtoes 26.2496
lfemur -4.28644 21.9306 9.40791
ltibia 40.9478
lfoot 13.7705 2.54763
ltoes -30.9907
310
root -7.34336 17.7721 4.69151 3.01197 35.7413 -9.00286
lowerback 6.30719 -9.1896 -18.2432
upperback -0.417972 -13.4667 -4.13506
thorax -0.868745 -6.46472 5.99413
lowerneck -4.88871 22.5799 1.69198
upperneck 11.1951 32.383 -13.3898
head 6.73862 14.8848 -1.48487
rclavicle -8.47817e-014 8.26944e-014
rhumerus 32.2948 -26.3517 -58.8123
rradius 102.446
rwrist -11.0432
rhand -65.379 26.9181
rfingers 7.12502
rthumb -37.2561 0.920323
lclavicle -8.47817e-014 8.26944e-014
lhumerus 112.605 -40.8925 45.7681
lradius 35.4271
lwrist 2.11716
lhand -14.9917 5.58807
lfingers 7.12502
lthumb -168.827 215.271
rfemur -30.8624 12.9916 25.5132
rtibia 31.8283
rfoot -1.17772 30.0382
rtoes 24.8708
lfemur -4.61972 22.1556 9.39783
ltibia 40.8606
lfoot 12.7863 2.14991
ltoes -31.3336
311
root -7.34576 17.774 4.6387 3.0876 36.2894 -9.19858
lowerback 6.37942 -9.11806 -18.0589
upperback -0.319401 -13.3636 -4.12761
thorax -0.861804 -6.4224 5.9233
lowerneck -4.78079 22.4519 2.00763
upperneck 11.2863 32.2105 -13.4427
head 6.79438 14.8103 -1.548
rclavicle 1.73937e-014 5.725e-014
rhumerus 32.0792 -26.2366 -59.4373
rradius 101.975
rwrist -11.741
rhand -65.4625 26.3548
rfingers 7.12502
rthumb -37.335 0.377729
lclavicle 1.73937e-014 5.725e-014
lhumerus 112.398 -41.2938 45.6519
lradius 35.0651
lwrist 1.73212
lhand -14.8589 5.87977
lfingers 7.12502
lthumb -168.699 215.555
rfemur -31.1835 12.7341 25.4714
rtibia 31.716
rfoot -1.4762 29.6022
rtoes 23.0929
lfemur -5.09548 22.4185 9.26461
ltibia 40.7807
lfoot 11.771 1.88153
ltoes -31.5153
